<svg width="18" height="14" viewBox="0 0 18 14" fill="none" xmlns="http://www.w3.org/2000/svg">
<path fill-rule="evenodd" clip-rule="evenodd" d="M3.74999 0.333252C1.90904 0.333252 0.416656 1.82564 0.416656 3.66658V10.3333C0.416656 12.1742 1.90904 13.6666 3.74999 13.6666H13.75C15.5909 13.6666 17.0833 12.1742 17.0833 10.3333V3.66658C17.0833 1.82564 15.5909 0.333252 13.75 0.333252H3.74999ZM10.4167 1.99992H7.08332V11.9999H10.4167V1.99992ZM12.0833 1.99992V11.9999H13.75C14.6705 11.9999 15.4167 11.2538 15.4167 10.3333V3.66658C15.4167 2.74611 14.6705 1.99992 13.75 1.99992H12.0833ZM3.74999 11.9999H5.41666V1.99992H3.74999C2.82951 1.99992 2.08332 2.74611 2.08332 3.66658V10.3333C2.08332 11.2538 2.82951 11.9999 3.74999 11.9999Z" fill="#0A65E4"/>
</svg>
