<?xml version="1.0"?><svg xmlns="http://www.w3.org/2000/svg" xmlns:xlink="http://www.w3.org/1999/xlink" version="1.1" viewBox="0 0 24 24" style="enable-background:new 0 0 24 24;" xml:space="preserve"><style type="text/css">
	.st0{opacity:0.2;fill:none;stroke:#000000;stroke-width:0.05;stroke-miterlimit:10;}
</style><g id="grid_system"/><g id="Layer_2"><path d="M19.83154,1.43652c-2.33789-0.50684-4.80811-0.50586-7.14893,0.00098c-0.85205,0.1875-1.53418,0.81543-1.78125,1.6416   c-0.51318,1.73828-0.51465,3.57617,0.00098,5.33301c0.00732,0.02344,0.01904,0.05566,0.02979,0.08398l0.16553,0.42773   c0.42188,1.08691,1.13818,2.03223,2.07324,2.7334C13.47363,11.88379,13.83252,12,14.19678,12   c0.20703,0,0.41504-0.03711,0.61572-0.11426c0.55322-0.21094,0.95312-0.68359,1.07031-1.26465l0.03906-0.19434   c1.31836,0.03418,2.64795-0.10059,3.91309-0.37793c0.85107-0.1875,1.53369-0.81543,1.7832-1.64551   C21.87158,7.53125,22,6.63672,22,5.74316s-0.12842-1.78809-0.38477-2.66895C21.36865,2.25293,20.68604,1.625,19.83154,1.43652z    M12.81641,7.83203c-0.00049-0.00293-0.00146-0.00488-0.00195-0.00781c0.00146,0.00488,0.00244,0.00879,0.00244,0.00879   S12.81689,7.83203,12.81641,7.83203z M19.7002,7.83594c-0.03857,0.12891-0.15186,0.22852-0.29443,0.25977   c-1.30908,0.28711-2.7002,0.38965-4.06885,0.30566c-0.57764-0.04785-1.12305,0.37305-1.23926,0.95117l-0.08154,0.40723   c-0.46289-0.43359-0.82324-0.96582-1.0542-1.55957l-0.15381-0.39746c-0.39355-1.36133-0.38965-2.79883,0.01025-4.15332   c0.03809-0.12793,0.15137-0.22754,0.2915-0.25781c2.06006-0.44629,4.23828-0.44629,6.29443-0.00098   c0.14404,0.03125,0.25732,0.13086,0.29297,0.25098C19.89844,4.33203,20,5.03906,20,5.74316S19.89844,7.1543,19.7002,7.83594z"/><path d="M10.25488,22.57422c0.8042,0.30566,1.64014,0.4541,2.4668,0.4541c1.76904,0,3.49561-0.68066,4.77246-1.95703   c0.9458-0.94531,1.20312-2.36035,0.65576-3.60547c-0.76758-1.74512-2.15137-3.12891-3.896-3.89551   c-1.24365-0.54883-2.66113-0.29004-3.60645,0.65527c-0.1377,0.13867-0.33008,0.19824-0.5249,0.20898   c-0.83154-0.01074-1.51709-0.69629-1.52832-1.52832c-0.00293-0.20117,0.07129-0.3877,0.20947-0.52539   c0.94531-0.94629,1.20215-2.36133,0.65527-3.60547c-0.7666-1.74414-2.1499-3.12793-3.896-3.89648   C4.31787,4.3291,2.90234,4.58887,1.95703,5.53516C0.08398,7.4082-0.50635,10.25,0.4541,12.77344   C2.17041,17.28711,5.74316,20.85938,10.25488,22.57422z M3.37109,6.94922c0.23145-0.23145,0.53955-0.35254,0.85938-0.35254   c0.17578,0,0.35547,0.03711,0.52734,0.1123c1.28613,0.56641,2.30518,1.58594,2.87012,2.87109   c0.21289,0.48438,0.11914,1.02832-0.23877,1.38672c-0.51514,0.51465-0.80469,1.23145-0.79492,1.9668   c0.02588,1.9043,1.59668,3.47461,3.5,3.50098c0.73193-0.0166,1.45312-0.2793,1.96777-0.79492   c0.35889-0.3584,0.90332-0.4502,1.38721-0.23926c1.28516,0.56543,2.3042,1.58496,2.86963,2.87012   c0.21289,0.48438,0.11963,1.02832-0.23877,1.38672c-1.31641,1.31738-3.32422,1.72852-5.11426,1.04785   c-3.97852-1.5127-7.12891-4.66211-8.64258-8.64258C1.64258,10.27344,2.0542,8.2666,3.37109,6.94922z"/></g></svg>