<?xml version='1.0' encoding='iso-8859-1'?>
<svg version="1.1" xmlns="http://www.w3.org/2000/svg" viewBox="0 0 297.996 297.996" xmlns:xlink="http://www.w3.org/1999/xlink" enable-background="new 0 0 297.996 297.996">
  <g>
    <g>
      <path d="m253.188,167.269c71.345-88.746 36.543-149.65 34.802-151.391s-1.74-3.48-3.48-3.48c0,0-15.661-10.441-43.503-10.441-24.362,0-62.644,6.96-107.888,43.503-1.74,0-3.48,1.74-6.96,5.22-19.142-15.66-43.504-12.18-66.125,10.441-53.944,53.944-31.322,92.226-29.582,93.966 1.74,1.74 1.74,3.48 3.48,3.48 0,0 10.441,5.22 26.102,5.22 1.74,17.401 10.441,33.062 26.102,48.723 15.661,13.921 31.322,24.362 48.723,26.102-1.74,15.661 5.22,24.362 5.22,26.102 1.74,1.74 1.74,3.48 3.48,3.48 1.74,0 10.441,5.22 24.362,5.22 15.661,0 40.023-6.978 69.605-33.062 22.621-22.621 26.102-45.243 10.441-66.124 1.741-3.479 3.481-5.218 5.221-6.959zm-22.622,10.441c8.701,8.701 17.401,24.362-5.22,46.983-24.362,24.362-45.243,29.582-57.424,29.582-6.96,0-12.181,0-13.921-1.74-1.74-3.497-3.48-10.441 1.74-19.141 0-1.74 0-5.22-1.74-6.96-1.74-1.74-5.22-3.48-6.96-3.48-15.661,0-31.322-8.701-45.243-22.621-15.661-13.921-22.621-29.582-22.621-45.243 0-3.48-1.74-5.22-3.48-6.96-1.74-1.74-5.22-1.74-6.96-1.74-10.441,1.74-19.141,0-22.621-1.74-3.48-6.96-8.701-33.062 27.842-69.605 17.401-17.401 33.062-19.141 46.983-5.22 1.74,0 5.22,1.74 6.96,1.74 3.48,0 5.22-1.74 12.181-6.96 0-1.74 1.74-3.48 3.48-3.48 0-1.74 1.74-1.74 1.74-1.74 41.763-34.802 76.565-41.763 97.447-41.763 17.401,0 29.582,5.22 33.062,6.96 5.22,10.441 22.621,59.164-34.802,130.509-1.74,0-1.74,1.74-1.74,1.74s-1.74,1.74-3.48,3.48c-6.963,5.218-10.443,12.179-5.223,17.399z"/>
      <path d="m68.735,228.174c-3.48-3.48-8.701-3.48-12.181,0l-43.503,43.503c-3.48,3.48-3.48,8.701 0,12.181 1.74,1.74 5.22,1.74 6.96,1.74 3.48,0 5.22-1.758 5.22-1.74l43.503-43.503c3.481-3.481 3.481-8.701 0.001-12.181z"/>
      <path d="M14.791,228.174l22.621-22.621c3.48-3.48,3.48-8.701,0-12.181s-8.701-3.48-12.181,0L2.61,215.993    c-3.48,3.48-3.48,8.701,0,12.181c1.74,1.74,5.22,1.74,6.96,1.74S14.791,229.914,14.791,228.174z"/>
      <path d="m91.357,259.496l-22.621,22.621c-3.48,3.48-3.48,8.701 0,12.181 1.74,1.74 5.22,1.74 6.96,1.74s3.48,0 5.22-1.74l22.621-22.621c3.48-3.48 3.48-8.701 0-12.181-3.48-3.48-8.7-3.48-12.18,0z"/>
      <path d="m157.481,83.743c-15.661,15.661-15.661,40.023 0,55.684 6.96,8.701 17.401,12.181 27.842,12.181 10.441,0 20.882-5.22 27.842-12.181 8.701-6.96 12.181-17.401 12.181-27.842s-5.22-20.882-12.181-27.842c-13.921-15.661-40.023-15.661-55.684,0zm43.503,43.486c-8.701,8.701-22.621,8.701-31.322,0-8.701-8.701-8.701-22.621 0-31.322 3.48-5.22 10.441-6.96 15.661-6.96 6.96,0 10.441,3.48 15.661,6.96 5.22,3.48 6.96,10.441 6.96,15.661-2.84217e-14,5.221-3.48,12.181-6.96,15.661z"/>
    </g>
  </g>
</svg>
