<?xml version="1.0" ?><svg fill="none" height="24" viewBox="0 0 24 24" width="24" xmlns="http://www.w3.org/2000/svg"><path clip-rule="evenodd" d="M15.48 3.75C14.5687 3.75 13.83 4.48873 13.83 5.4C13.83 6.31127 14.5687 7.05 15.48 7.05C16.3913 7.05 17.13 6.31127 17.13 5.4C17.13 4.48873 16.3913 3.75 15.48 3.75ZM12.3868 4.80124C12.6665 3.34789 13.945 2.25 15.48 2.25C17.015 2.25 18.2935 3.34789 18.5732 4.80124H21C21.4142 4.80124 21.75 5.13702 21.75 5.55124C21.75 5.96545 21.4142 6.30124 21 6.30124H18.4992C18.1115 7.60177 16.9065 8.55 15.48 8.55C14.0535 8.55 12.8485 7.60177 12.4608 6.30124H3C2.58579 6.30124 2.25 5.96545 2.25 5.55124C2.25 5.13702 2.58579 4.80124 3 4.80124L12.3868 4.80124ZM7.08 10.35C6.16873 10.35 5.43 11.0887 5.43 12C5.43 12.9113 6.16873 13.65 7.08 13.65C7.99127 13.65 8.73 12.9113 8.73 12C8.73 11.0887 7.99127 10.35 7.08 10.35ZM4.0157 11.2672C4.346 9.88089 5.59261 8.85 7.08 8.85C8.57709 8.85 9.83026 9.89439 10.1507 11.2943C10.1567 11.2942 10.1629 11.2941 10.169 11.2941H21C21.4142 11.2941 21.75 11.6299 21.75 12.0441C21.75 12.4583 21.4142 12.7941 21 12.7941H10.169C10.1557 12.7941 10.1425 12.7938 10.1293 12.7931C9.7777 14.1489 8.54577 15.15 7.08 15.15C5.60502 15.15 4.36681 14.1362 4.02415 12.7674L3.01966 12.7938C2.60559 12.8046 2.26112 12.4778 2.25026 12.0637C2.23941 11.6496 2.56628 11.3051 2.98035 11.2943L4.0157 11.2672ZM15.48 16.95C14.5687 16.95 13.83 17.6887 13.83 18.6C13.83 19.5113 14.5687 20.25 15.48 20.25C16.3913 20.25 17.13 19.5113 17.13 18.6C17.13 17.6887 16.3913 16.95 15.48 16.95ZM12.436 17.7868C12.7945 16.4413 14.0215 15.45 15.48 15.45C16.9385 15.45 18.1655 16.4413 18.524 17.7868H21C21.4142 17.7868 21.75 18.1226 21.75 18.5368C21.75 18.951 21.4142 19.2868 21 19.2868H18.5549C18.2415 20.6962 16.9838 21.75 15.48 21.75C13.9762 21.75 12.7185 20.6962 12.4051 19.2868H3C2.58579 19.2868 2.25001 18.951 2.25001 18.5368C2.25001 18.1226 2.58579 17.7868 3 17.7868H12.436Z" fill="black" fill-rule="evenodd"/></svg>