<?xml version="1.0" encoding="utf-8"?>
<!-- Generator: Adobe Illustrator 25.2.0, SVG Export Plug-In . SVG Version: 6.00 Build 0)  -->
<svg version="1.1" id="Layer_1" xmlns="http://www.w3.org/2000/svg" xmlns:xlink="http://www.w3.org/1999/xlink" x="0px" y="0px"
	 viewBox="0 0 64 64" style="enable-background:new 0 0 64 64;" xml:space="preserve">
<g>
	<path d="M53.6,34.2c-5.9-5.9-11.9-11.9-17.8-17.8c-0.8-0.8-1.7-1.7-2.5-2.5s-2.1-0.8-2.8,0c-5.9,5.9-11.9,11.9-17.8,17.8
		c-0.8,0.8-1.7,1.7-2.5,2.5c-1.8,1.8,1,4.7,2.8,2.8c5.9-5.9,11.9-11.9,17.8-17.8c0.4-0.4,0.7-0.7,1.1-1.1c5.5,5.5,11,11,16.4,16.4
		c0.8,0.8,1.7,1.7,2.5,2.5C52.6,38.8,55.4,36,53.6,34.2z"/>
	<path d="M35.7,30.2c-0.8-0.8-1.6-1.6-2.4-2.4c-0.8-0.8-2.1-0.8-2.8,0c-5.6,5.6-11.3,11.3-16.9,16.9c-0.8,0.8-1.6,1.6-2.4,2.4
		c-1.8,1.8,1,4.7,2.8,2.8c5.6-5.6,11.3-11.3,16.9-16.9c0.3-0.3,0.7-0.7,1-1c5.1,5.1,10.3,10.3,15.4,15.4c0.8,0.8,1.6,1.6,2.4,2.4
		c1.8,1.8,4.7-1,2.8-2.8C46.9,41.4,41.3,35.8,35.7,30.2z"/>
</g>
</svg>
