<?xml version="1.0" encoding="utf-8"?>
<!-- Generator: Adobe Illustrator 25.2.0, SVG Export Plug-In . SVG Version: 6.00 Build 0)  -->
<svg version="1.1" id="Layer_1" xmlns="http://www.w3.org/2000/svg" xmlns:xlink="http://www.w3.org/1999/xlink" x="0px" y="0px"
	 viewBox="0 0 64 64" style="enable-background:new 0 0 64 64;" xml:space="preserve">
<g>
	<path d="M50.6,29.3C44.7,35.2,38.9,41,33,46.9c-0.3,0.3-0.6,0.6-0.9,0.9C26.7,42.4,21.4,37.1,16,31.7c-0.9-0.9-1.7-1.7-2.6-2.6
		c-2-2-5.3,1.1-3.2,3.2C16.1,38.2,22,44.1,27.9,50c0.9,0.9,1.7,1.7,2.6,2.6c0.9,0.9,2.4,0.9,3.2,0c5.9-5.9,11.7-11.7,17.6-17.6
		c0.8-0.8,1.7-1.7,2.5-2.5C55.9,30.5,52.6,27.3,50.6,29.3z"/>
	<path d="M28,34.8c0.9,0.9,1.7,1.7,2.6,2.6c0.9,0.9,2.4,0.9,3.2,0c5.9-5.9,11.7-11.7,17.6-17.6c0.8-0.8,1.7-1.7,2.5-2.5
		c2-2-1.1-5.3-3.2-3.2c-6,5.8-11.8,11.7-17.7,17.5c-0.3,0.3-0.6,0.6-0.9,0.9C26.7,27.1,21.4,21.8,16,16.4c-0.9-0.9-1.7-1.7-2.6-2.6
		c-2-2-5.3,1.1-3.2,3.2C16.1,23,22.1,28.8,28,34.8z"/>
</g>
</svg>
